<svg xmlns="http://www.w3.org/2000/svg" version="1.1" xmlns:xlink="http://www.w3.org/1999/xlink"
    xmlns:svgjs="http://svgjs.dev/svgjs" width="2000" height="522" viewBox="0 0 2000 522">
    <g transform="matrix(1,0,0,1,-32.136492083342546,-1.106823284585289)">
        <svg viewBox="0 0 402 105" data-background-color="#ffffff"
            preserveAspectRatio="xMidYMid meet" height="522" width="2000"
            xmlns="http://www.w3.org/2000/svg" xmlns:xlink="http://www.w3.org/1999/xlink">
            <g id="tight-bounds" transform="matrix(1,0,0,1,6.459434908751859,0.35819929343966805)">
                <svg viewBox="0 0 395.52 104.28360141312065" height="104.28360141312065"
                    width="395.52">
                    <g>
                        <svg viewBox="0 0 604.897003708073 159.48836476204403"
                            height="104.28360141312065" width="395.52">
                            <g transform="matrix(1,0,0,1,209.37700370807303,40.09478365333887)">
                                <svg viewBox="0 0 395.52 79.29879745536628"
                                    height="79.29879745536628" width="395.52">
                                    <g id="textblocktransform">
                                        <svg viewBox="0 0 395.52 79.29879745536628"
                                            height="79.29879745536628" width="395.52" id="textblock">
                                            <g>
                                                <svg viewBox="0 0 395.52 79.29879745536628"
                                                    height="79.29879745536628" width="395.52">
                                                    <g transform="matrix(1,0,0,1,0,0)">
                                                        <svg width="395.52"
                                                            viewBox="2.75 -37.85 244.63 48.85"
                                                            height="79.29879745536628"
                                                            data-palette-color="#3498db">
                                                            <g class="wordmark-text-0"
                                                                data-fill-palette-color="primary"
                                                                id="text-0">
                                                                <path
                                                                    d="M21.2 0.6L21.2 0.6Q17.25 0.6 13.88-0.85 10.5-2.3 8.03-4.88 5.55-7.45 4.15-10.95 2.75-14.45 2.75-18.65L2.75-18.65Q2.75-22.8 4.13-26.33 5.5-29.85 8-32.43 10.5-35 13.85-36.43 17.2-37.85 21.2-37.85L21.2-37.85Q25.15-37.85 28.28-36.5 31.4-35.15 33.55-32.98 35.7-30.8 36.65-28.25L36.65-28.25 31.35-25.75Q30.15-28.75 27.53-30.63 24.9-32.5 21.2-32.5L21.2-32.5Q17.5-32.5 14.65-30.75 11.8-29 10.23-25.9 8.65-22.8 8.65-18.65L8.65-18.65Q8.65-14.5 10.23-11.38 11.8-8.25 14.65-6.53 17.5-4.8 21.2-4.8L21.2-4.8Q24.9-4.8 27.53-6.65 30.15-8.5 31.35-11.5L31.35-11.5 36.65-9Q35.7-6.5 33.55-4.3 31.4-2.1 28.28-0.75 25.15 0.6 21.2 0.6ZM55.2 0.6L55.2 0.6Q51.3 0.6 48.07-1.25 44.85-3.1 42.95-6.3 41.05-9.5 41.05-13.55L41.05-13.55Q41.05-17.65 42.95-20.83 44.85-24 48.05-25.83 51.25-27.65 55.2-27.65L55.2-27.65Q59.2-27.65 62.37-25.83 65.55-24 67.42-20.83 69.3-17.65 69.3-13.55L69.3-13.55Q69.3-9.45 67.4-6.25 65.5-3.05 62.3-1.23 59.1 0.6 55.2 0.6ZM55.2-4.65L55.2-4.65Q57.6-4.65 59.45-5.8 61.3-6.95 62.37-8.97 63.45-11 63.45-13.55L63.45-13.55Q63.45-16.1 62.37-18.1 61.3-20.1 59.45-21.25 57.6-22.4 55.2-22.4L55.2-22.4Q52.85-22.4 50.97-21.25 49.1-20.1 48.02-18.1 46.95-16.1 46.95-13.55L46.95-13.55Q46.95-11 48.02-8.97 49.1-6.95 50.97-5.8 52.85-4.65 55.2-4.65ZM87.3 0.6L87.3 0.6Q83.4 0.6 80.32-1.28 77.25-3.15 75.47-6.35 73.7-9.55 73.7-13.55L73.7-13.55Q73.7-17.55 75.5-20.75 77.3-23.95 80.34-25.8 83.4-27.65 87.25-27.65L87.25-27.65Q90.5-27.65 93-26.35 95.5-25.05 96.95-22.75L96.95-22.75 96.09-21.45 96.09-37.85 101.7-37.85 101.7 0 96.34 0 96.34-5.5 97-4.45Q95.59-2 93-0.7 90.4 0.6 87.3 0.6ZM87.84-4.65L87.84-4.65Q90.2-4.65 92.07-5.8 93.95-6.95 95.02-8.97 96.09-11 96.09-13.55L96.09-13.55Q96.09-16.1 95.02-18.1 93.95-20.1 92.07-21.25 90.2-22.4 87.84-22.4L87.84-22.4Q85.5-22.4 83.59-21.25 81.7-20.1 80.65-18.1 79.59-16.1 79.59-13.55L79.59-13.55Q79.59-11 80.65-8.97 81.7-6.95 83.57-5.8 85.45-4.65 87.84-4.65ZM120.99 0.6L120.99 0.6Q116.94 0.6 113.82-1.28 110.69-3.15 108.94-6.38 107.19-9.6 107.19-13.6L107.19-13.6Q107.19-17.7 108.97-20.85 110.74-24 113.74-25.83 116.74-27.65 120.54-27.65L120.54-27.65Q123.59-27.65 125.99-26.6 128.39-25.55 130.04-23.73 131.69-21.9 132.57-19.55 133.44-17.2 133.44-14.55L133.44-14.55Q133.44-13.9 133.39-13.2 133.34-12.5 133.19-11.9L133.19-11.9 111.64-11.9 111.64-16.4 129.99-16.4 127.29-14.35Q127.79-16.8 126.97-18.73 126.14-20.65 124.47-21.78 122.79-22.9 120.54-22.9L120.54-22.9Q118.29-22.9 116.54-21.78 114.79-20.65 113.84-18.57 112.89-16.5 113.09-13.55L113.09-13.55Q112.84-10.8 113.87-8.75 114.89-6.7 116.77-5.55 118.64-4.4 121.04-4.4L121.04-4.4Q123.49-4.4 125.22-5.5 126.94-6.6 127.94-8.35L127.94-8.35 132.54-6.1Q131.74-4.2 130.07-2.68 128.39-1.15 126.07-0.28 123.74 0.6 120.99 0.6ZM155.24 0L139.49 0 139.49-37.25 155.19-37.25Q158.69-37.25 161.24-36.02 163.79-34.8 165.14-32.52 166.49-30.25 166.49-27.15L166.49-27.15Q166.49-24.45 165.12-22.23 163.74-20 160.84-18.7L160.84-18.7 160.84-21.2Q163.39-20.2 164.99-18.68 166.59-17.15 167.32-15.25 168.04-13.35 168.04-11.25L168.04-11.25Q168.04-6 164.62-3 161.19 0 155.24 0L155.24 0ZM145.39-17.2L145.39-5.25 155.69-5.25Q158.64-5.25 160.39-6.88 162.14-8.5 162.14-11.2L162.14-11.2Q162.14-13.95 160.39-15.58 158.64-17.2 155.69-17.2L155.69-17.2 145.39-17.2ZM145.39-32.15L145.39-22.4 155.34-22.4Q157.74-22.4 159.19-23.78 160.64-25.15 160.64-27.4L160.64-27.4Q160.64-29.65 159.19-30.9 157.74-32.15 155.34-32.15L155.34-32.15 145.39-32.15ZM175.94 11L175.94 11Q174.94 11 173.96 10.83 172.99 10.65 172.19 10.3L172.19 10.3 172.19 5.45Q172.79 5.6 173.64 5.73 174.49 5.85 175.29 5.85L175.29 5.85Q177.64 5.85 178.76 4.83 179.89 3.8 180.79 1.7L180.79 1.7 182.59-2.4 182.49 2.35 170.79-27.05 176.84-27.05 185.49-4.5 183.44-4.5 192.04-27.05 198.14-27.05 186.19 2.95Q185.24 5.35 183.81 7.18 182.39 9 180.46 10 178.54 11 175.94 11ZM213.69 0.3L213.69 0.3Q209.44 0.3 207.09-2.1 204.74-4.5 204.74-8.85L204.74-8.85 204.74-21.95 199.99-21.95 199.99-27.05 200.74-27.05Q202.63-27.05 203.69-28.15 204.74-29.25 204.74-31.15L204.74-31.15 204.74-33.25 210.38-33.25 210.38-27.05 216.53-27.05 216.53-21.95 210.38-21.95 210.38-9.1Q210.38-7.7 210.84-6.73 211.28-5.75 212.28-5.23 213.28-4.7 214.88-4.7L214.88-4.7Q215.28-4.7 215.78-4.75 216.28-4.8 216.74-4.85L216.74-4.85 216.74 0Q216.03 0.1 215.19 0.2 214.34 0.3 213.69 0.3ZM234.93 0.6L234.93 0.6Q230.88 0.6 227.76-1.28 224.63-3.15 222.88-6.38 221.13-9.6 221.13-13.6L221.13-13.6Q221.13-17.7 222.91-20.85 224.68-24 227.68-25.83 230.68-27.65 234.48-27.65L234.48-27.65Q237.53-27.65 239.93-26.6 242.33-25.55 243.98-23.73 245.63-21.9 246.51-19.55 247.38-17.2 247.38-14.55L247.38-14.55Q247.38-13.9 247.33-13.2 247.28-12.5 247.13-11.9L247.13-11.9 225.58-11.9 225.58-16.4 243.93-16.4 241.23-14.35Q241.73-16.8 240.91-18.73 240.08-20.65 238.41-21.78 236.73-22.9 234.48-22.9L234.48-22.9Q232.23-22.9 230.48-21.78 228.73-20.65 227.78-18.57 226.83-16.5 227.03-13.55L227.03-13.55Q226.78-10.8 227.81-8.75 228.83-6.7 230.71-5.55 232.58-4.4 234.98-4.4L234.98-4.4Q237.43-4.4 239.16-5.5 240.88-6.6 241.88-8.35L241.88-8.35 246.48-6.1Q245.68-4.2 244.01-2.68 242.33-1.15 240.01-0.28 237.68 0.6 234.93 0.6Z"
                                                                    fill="#3498DB"
                                                                    data-fill-palette-color="primary"></path>
                                                            </g>
                                                        </svg>
                                                    </g>
                                                </svg>
                                            </g>
                                        </svg>
                                    </g>
                                </svg>
                            </g>
                            <g>
                                <svg viewBox="0 0 190.6564608 159.48836476204403"
                                    height="159.48836476204403" width="190.6564608">
                                    <g>
                                        <svg xmlns="http://www.w3.org/2000/svg"
                                            xmlns:xlink="http://www.w3.org/1999/xlink" version="1.1"
                                            x="0" y="0"
                                            viewBox="25.514 29.514978465022693 48.979 40.9720215349773"
                                            enable-background="new 0 0 100 100" xml:space="preserve"
                                            height="159.48836476204403" width="190.6564608"
                                            class="icon-icon-0" data-fill-palette-color="accent"
                                            id="icon-0"><path d="M72.988 48.5H67.242L64.372 43.014 64.369 43.009A1.6 1.6 0 0 0 64.208 42.764C64.172 42.72 64.13 42.684 64.09 42.644 64.061 42.615 64.034 42.582 64.001 42.555A2 2 0 0 0 63.822 42.433C63.8 42.419 63.781 42.403 63.759 42.39A1.6 1.6 0 0 0 63.485 42.275L63.481 42.274C63.46 42.268 63.439 42.267 63.419 42.262A1.3 1.3 0 0 0 63.194 42.218C63.16 42.215 63.126 42.218 63.091 42.217 63.027 42.215 62.963 42.212 62.899 42.218 62.866 42.221 62.833 42.231 62.799 42.237 62.737 42.247 62.673 42.256 62.611 42.275 62.571 42.287 62.534 42.306 62.496 42.321 62.446 42.341 62.395 42.355 62.348 42.381L62.34 42.386C62.296 42.409 62.256 42.441 62.214 42.469A1.5 1.5 0 0 0 61.952 42.69C61.931 42.711 61.909 42.729 61.89 42.752A1.4 1.4 0 0 0 61.763 42.94C61.751 42.959 61.736 42.976 61.725 42.996 61.678 43.083 61.64 43.176 61.611 43.27L61.609 43.274 55.394 63.654 46.11 30.606C46.109 30.6 46.105 30.595 46.103 30.589 46.087 30.535 46.063 30.484 46.041 30.431 46.024 30.392 46.011 30.35 45.991 30.312 45.972 30.276 45.947 30.245 45.926 30.211 45.896 30.163 45.867 30.112 45.832 30.068 45.815 30.047 45.793 30.029 45.775 30.009 45.729 29.958 45.683 29.906 45.63 29.862 45.609 29.844 45.585 29.832 45.563 29.815 45.507 29.773 45.451 29.731 45.389 29.697 45.369 29.686 45.346 29.679 45.326 29.669A1.5 1.5 0 0 0 45.114 29.58L45.104 29.576C45.081 29.569 45.057 29.568 45.034 29.562A1.4 1.4 0 0 0 44.826 29.521C44.78 29.516 44.735 29.518 44.689 29.517 44.638 29.516 44.588 29.513 44.537 29.517 44.471 29.523 44.406 29.537 44.341 29.552 44.314 29.558 44.287 29.559 44.26 29.566L44.248 29.57A1.5 1.5 0 0 0 44.032 29.655C44.012 29.664 43.99 29.67 43.971 29.68 43.901 29.717 43.835 29.762 43.771 29.809 43.757 29.819 43.74 29.827 43.727 29.838 43.663 29.889 43.605 29.948 43.55 30.01 43.541 30.02 43.529 30.029 43.521 30.039 43.482 30.084 43.451 30.137 43.418 30.187 43.397 30.218 43.373 30.248 43.355 30.28 43.336 30.314 43.323 30.352 43.307 30.387 43.282 30.443 43.255 30.497 43.237 30.556 43.236 30.561 43.233 30.565 43.231 30.57L36.59 52.352 34.996 49.305C34.983 49.281 34.966 49.262 34.953 49.239A2 2 0 0 0 34.867 49.108 1 1 0 0 0 34.774 48.996 2 2 0 0 0 34.556 48.798 1.5 1.5 0 0 0 33.727 48.507C33.707 48.507 33.688 48.501 33.668 48.501H27.014A1.5 1.5 0 1 0 27.014 51.501H32.761L35.631 56.987V56.988C35.69 57.1 35.767 57.202 35.853 57.297 35.873 57.319 35.894 57.339 35.915 57.36 35.988 57.431 36.068 57.496 36.157 57.551 36.176 57.563 36.192 57.577 36.211 57.588 36.308 57.644 36.41 57.692 36.522 57.726 36.529 57.728 36.537 57.727 36.544 57.729 36.673 57.767 36.806 57.787 36.941 57.789 36.947 57.789 36.953 57.792 36.96 57.792H36.962C37.103 57.792 37.243 57.765 37.382 57.724 37.423 57.712 37.46 57.696 37.499 57.68 37.551 57.66 37.605 57.648 37.656 57.621 37.709 57.594 37.754 57.558 37.802 57.524 37.822 57.51 37.843 57.5 37.862 57.485 37.976 57.399 38.074 57.299 38.157 57.188 38.171 57.169 38.183 57.15 38.196 57.13 38.28 57.005 38.351 56.871 38.394 56.729L44.609 36.349 53.892 69.393 53.898 69.405C53.939 69.547 54.004 69.678 54.085 69.801 54.1 69.824 54.114 69.848 54.131 69.87 54.213 69.982 54.309 70.083 54.421 70.17 54.44 70.185 54.46 70.196 54.48 70.21 54.584 70.283 54.699 70.345 54.824 70.391 54.843 70.397 54.858 70.407 54.877 70.412 54.885 70.414 54.892 70.419 54.9 70.422 55.039 70.465 55.178 70.483 55.317 70.484 55.324 70.484 55.33 70.487 55.337 70.487H55.339L55.351 70.485C55.481 70.484 55.614 70.468 55.744 70.431 55.759 70.427 55.77 70.419 55.784 70.415 55.807 70.407 55.829 70.396 55.851 70.389 55.97 70.345 56.08 70.288 56.182 70.219 56.201 70.206 56.22 70.196 56.239 70.182 56.349 70.099 56.445 70 56.528 69.892 56.546 69.869 56.561 69.844 56.578 69.82 56.658 69.701 56.724 69.573 56.768 69.435L56.773 69.424 63.415 47.646 65.01 50.695C65.019 50.712 65.032 50.723 65.041 50.739 65.094 50.832 65.155 50.918 65.226 50.997 65.241 51.014 65.252 51.031 65.267 51.047 65.351 51.132 65.446 51.205 65.546 51.269 65.573 51.286 65.601 51.298 65.628 51.314 65.711 51.358 65.797 51.395 65.888 51.423 65.918 51.433 65.947 51.444 65.978 51.451 66.094 51.48 66.214 51.5 66.339 51.5H72.993A1.5 1.5 0 0 0 74.493 50 1.507 1.507 0 0 0 72.988 48.5" fill="#3498DB" data-fill-palette-color="accent"></path></svg>
                                    </g>
                                </svg>
                            </g>
                        </svg>
                    </g>
                    <defs></defs>
                </svg>
                <rect width="395.52" height="104.28360141312065" fill="none" stroke="none"
                    visibility="hidden"></rect>
            </g>
        </svg>
    </g>
</svg>