<?xml version="1.0" encoding="UTF-8"?>
<!DOCTYPE svg PUBLIC "-//W3C//DTD SVG 1.1//EN" "http://www.w3.org/Graphics/SVG/1.1/DTD/svg11.dtd">
<svg xmlns="http://www.w3.org/2000/svg" version="1.1" width="2000px" height="522px" style="shape-rendering:geometricPrecision; text-rendering:geometricPrecision; image-rendering:optimizeQuality; fill-rule:evenodd; clip-rule:evenodd" xmlns:xlink="http://www.w3.org/1999/xlink">
<g><path style="opacity:0.974" fill="#fefffe" d="M 271.5,0.5 C 283.167,0.0755772 290.667,5.40891 294,16.5C 332.369,154.312 371.203,291.978 410.5,429.5C 437.096,343.545 463.596,257.545 490,171.5C 498.721,160.232 509.054,158.566 521,166.5C 534.421,191.008 547.588,215.675 560.5,240.5C 586.827,241.333 613.16,241.833 639.5,242C 652.688,248.903 655.855,259.07 649,272.5C 646.441,275.531 643.274,277.698 639.5,279C 607.167,279.667 574.833,279.667 542.5,279C 538.096,277.223 534.596,274.39 532,270.5C 525.333,257.833 518.667,245.167 512,232.5C 484.631,321.606 457.464,410.773 430.5,500C 427.304,515.547 417.97,521.88 402.5,519C 396.912,516.414 393.079,512.247 391,506.5C 351.844,367.544 312.844,228.544 274,89.5C 247.667,175.833 221.333,262.167 195,348.5C 187.464,359.787 177.63,362.287 165.5,356C 164,354.5 162.5,353 161,351.5C 148.373,327.746 135.873,303.912 123.5,280C 97.1667,279.667 70.8333,279.333 44.5,279C 31.9993,272.162 28.8327,262.329 35,249.5C 37.592,246.238 40.7587,243.738 44.5,242C 76.8333,241.333 109.167,241.333 141.5,242C 145.758,243.384 149.258,245.884 152,249.5C 158.667,262.167 165.333,274.833 172,287.5C 200.632,195.65 228.966,103.65 257,11.5C 260.321,5.65976 265.154,1.99309 271.5,0.5 Z"/></g>
<g><path style="opacity:0.958" fill="#fefffe" d="M 800.5,131.5 C 836.488,128.753 864.988,141.753 886,170.5C 887.97,174.273 889.803,178.106 891.5,182C 882.383,187.06 873.049,191.893 863.5,196.5C 847.471,165.495 822.471,154.662 788.5,164C 762.252,174.626 747.752,194.126 745,222.5C 742.685,242.568 746.685,261.234 757,278.5C 775.214,301.572 798.714,309.739 827.5,303C 843.781,297.719 855.281,287.219 862,271.5C 862.561,270.978 863.228,270.645 864,270.5C 873.259,274.296 882.259,278.63 891,283.5C 886.443,297.093 878.277,308.259 866.5,317C 839.325,335.026 809.991,339.359 778.5,330C 739.371,314.858 717.538,286.358 713,244.5C 708.86,200.285 725.36,166.452 762.5,143C 774.586,136.801 787.253,132.967 800.5,131.5 Z"/></g>
<g><path style="opacity:0.965" fill="#fefffe" d="M 1203.5,131.5 C 1213.5,131.5 1223.5,131.5 1233.5,131.5C 1233.5,198.167 1233.5,264.833 1233.5,331.5C 1223.83,331.5 1214.17,331.5 1204.5,331.5C 1204.67,325.824 1204.5,320.157 1204,314.5C 1194.54,325.817 1182.37,332.317 1167.5,334C 1127.41,336.891 1100.91,319.391 1088,281.5C 1080.4,250.029 1088.24,223.196 1111.5,201C 1133.45,184.63 1157.45,180.963 1183.5,190C 1190.96,193.143 1197.46,197.643 1203,203.5C 1203.5,179.502 1203.67,155.502 1203.5,131.5 Z M 1156.5,213.5 C 1185.3,215.298 1200.97,230.631 1203.5,259.5C 1201.99,287.004 1187.66,302.671 1160.5,306.5C 1132.88,303.378 1118.55,287.878 1117.5,260C 1118.15,233.869 1131.15,218.369 1156.5,213.5 Z"/></g>
<g><path style="opacity:0.964" fill="#fefffe" d="M 1431.5,134.5 C 1464.19,134.068 1496.86,134.568 1529.5,136C 1558.38,141.589 1573.38,159.089 1574.5,188.5C 1573.97,203.222 1568.3,215.555 1557.5,225.5C 1573.81,236.604 1582.14,252.104 1582.5,272C 1580.52,307.983 1561.52,327.649 1525.5,331C 1494.17,331.5 1462.84,331.667 1431.5,331.5C 1431.5,265.833 1431.5,200.167 1431.5,134.5 Z M 1463.5,162.5 C 1484.21,162.059 1504.88,162.559 1525.5,164C 1539.58,170.004 1544.75,180.504 1541,195.5C 1537.99,204.505 1531.83,210.005 1522.5,212C 1502.84,212.5 1483.17,212.667 1463.5,212.5C 1463.5,195.833 1463.5,179.167 1463.5,162.5 Z M 1463.5,241.5 C 1484.17,241.333 1504.84,241.5 1525.5,242C 1545.47,247.759 1553.31,260.926 1549,281.5C 1545.21,292.952 1537.38,299.785 1525.5,302C 1504.84,302.5 1484.17,302.667 1463.5,302.5C 1463.5,282.167 1463.5,261.833 1463.5,241.5 Z"/></g>
<g><path style="opacity:0.966" fill="#fefffe" d="M 1774.5,155.5 C 1784.5,155.5 1794.5,155.5 1804.5,155.5C 1804.5,166.5 1804.5,177.5 1804.5,188.5C 1815.5,188.5 1826.5,188.5 1837.5,188.5C 1837.5,197.833 1837.5,207.167 1837.5,216.5C 1826.5,216.5 1815.5,216.5 1804.5,216.5C 1804.33,240.169 1804.5,263.836 1805,287.5C 1805.82,296.653 1810.65,302.487 1819.5,305C 1825.82,305.5 1832.16,305.666 1838.5,305.5C 1838.5,314.167 1838.5,322.833 1838.5,331.5C 1821.98,335.055 1806.32,332.889 1791.5,325C 1782.27,317.722 1776.77,308.222 1775,296.5C 1774.5,269.835 1774.33,243.169 1774.5,216.5C 1766.17,216.5 1757.83,216.5 1749.5,216.5C 1749.5,207.167 1749.5,197.833 1749.5,188.5C 1761.22,190.013 1769.05,185.347 1773,174.5C 1774.19,168.222 1774.69,161.888 1774.5,155.5 Z"/></g>
<g><path style="opacity:0.961" fill="#fefffe" d="M 977.5,185.5 C 1014.96,181.968 1041.79,196.968 1058,230.5C 1069.9,265.736 1062.06,295.569 1034.5,320C 1010.75,335.781 985.415,338.781 958.5,329C 922.23,310.29 908.064,280.79 916,240.5C 925.063,209.265 945.563,190.932 977.5,185.5 Z M 984.5,213.5 C 1013.98,214.641 1029.64,229.975 1031.5,259.5C 1030.16,287.255 1015.82,302.922 988.5,306.5C 961.348,302.677 947.015,287.011 945.5,259.5C 947.098,234.252 960.098,218.919 984.5,213.5 Z"/></g>
<g><path style="opacity:0.964" fill="#fefffe" d="M 1321.5,185.5 C 1370.18,183.351 1396.51,206.518 1400.5,255C 1400.23,259.512 1399.9,264.012 1399.5,268.5C 1364.17,268.5 1328.83,268.5 1293.5,268.5C 1296.48,292.979 1310.31,305.979 1335,307.5C 1350.82,306.928 1362.82,299.928 1371,286.5C 1379.57,290.198 1387.73,294.531 1395.5,299.5C 1387.16,316.331 1373.82,327.164 1355.5,332C 1321.3,340.293 1293.8,330.46 1273,302.5C 1260.07,278.745 1258.07,254.078 1267,228.5C 1277.71,204.614 1295.88,190.281 1321.5,185.5 Z M 1323.5,211.5 C 1343.44,208.881 1357.61,216.547 1366,234.5C 1367.04,237.757 1367.54,241.09 1367.5,244.5C 1343.17,244.5 1318.83,244.5 1294.5,244.5C 1297.46,227.543 1307.13,216.543 1323.5,211.5 Z"/></g>
<g><path style="opacity:0.964" fill="#fefffe" d="M 1999.5,250.5 C 1999.5,253.167 1999.5,255.833 1999.5,258.5C 1998.52,261.625 1998.19,264.958 1998.5,268.5C 1963.17,268.5 1927.83,268.5 1892.5,268.5C 1895.37,292.696 1909.03,305.696 1933.5,307.5C 1949.48,307.002 1961.64,300.002 1970,286.5C 1978.57,290.198 1986.73,294.531 1994.5,299.5C 1981.3,323.275 1960.97,334.942 1933.5,334.5C 1892.75,332.586 1868.59,311.586 1861,271.5C 1857.1,244.239 1864.93,221.072 1884.5,202C 1906.86,184.637 1931.52,180.637 1958.5,190C 1983.89,202.226 1997.56,222.392 1999.5,250.5 Z M 1922.5,211.5 C 1947.53,208.99 1962.2,219.99 1966.5,244.5C 1941.83,244.667 1917.16,244.5 1892.5,244C 1896.53,227.474 1906.53,216.641 1922.5,211.5 Z"/></g>
<g><path style="opacity:0.957" fill="#fefffe" d="M 1595.5,188.5 C 1606.52,188.168 1617.52,188.501 1628.5,189.5C 1641.76,223.461 1654.93,257.461 1668,291.5C 1681,257.5 1694,223.5 1707,189.5C 1718.11,188.18 1729.27,188.18 1740.5,189.5C 1719.33,242.5 1698.17,295.5 1677,348.5C 1670.74,365.427 1659.57,377.927 1643.5,386C 1629.9,390.8 1616.4,390.634 1603,385.5C 1602.5,376.84 1602.33,368.173 1602.5,359.5C 1611.82,361.576 1621.15,361.743 1630.5,360C 1636.94,357.223 1641.78,352.723 1645,346.5C 1647.31,341.379 1649.48,336.212 1651.5,331C 1632.97,283.435 1614.3,235.935 1595.5,188.5 Z"/></g>
</svg>
